<?xml version="1.0" standalone="no"?>
<!DOCTYPE svg PUBLIC "-//W3C//DTD SVG 20010904//EN"
 "http://www.w3.org/TR/2001/REC-SVG-20010904/DTD/svg10.dtd">
<svg version="1.0" xmlns="http://www.w3.org/2000/svg"
 width="500.000000pt" height="500.000000pt" viewBox="0 0 500.000000 500.000000"
 preserveAspectRatio="xMidYMid meet">

<g transform="translate(0.000000,500.000000) scale(0.100000,-0.100000)"
fill="#000000" stroke="none">
<path d="M1560 4255 c0 -22 -4 -25 -35 -25 -33 0 -35 -2 -25 -20 8 -14 8 -20
0 -20 -6 0 -8 -5 -5 -10 4 -6 12 -8 18 -4 7 3 3 -2 -7 -10 -18 -15 -15 -20 9
-17 6 1 1 -6 -9 -14 -17 -13 -16 -19 4 -17 3 0 6 -8 6 -18 0 -12 -5 -16 -16
-12 -13 5 -13 3 -1 -11 12 -15 10 -17 -18 -17 -34 0 -44 -26 -14 -37 23 -9
118 12 165 37 22 11 44 18 49 14 5 -3 25 3 44 14 18 11 42 18 53 15 10 -2 26
3 35 11 8 9 39 22 69 30 29 8 81 24 115 35 33 12 77 22 97 23 20 2 36 6 36 11
0 4 8 7 18 7 14 0 15 -2 2 -10 -8 -5 -10 -10 -4 -10 5 0 15 5 22 12 9 9 12 8
12 -5 0 -14 4 -16 17 -8 11 6 24 6 34 0 10 -5 59 -23 111 -39 51 -17 100 -34
108 -37 8 -4 33 -12 55 -19 22 -6 71 -23 109 -38 79 -30 76 -29 76 -17 0 5
-30 19 -67 32 -87 28 -93 32 -63 40 16 4 3 7 -36 6 -40 0 -68 5 -83 15 -21 15
-21 17 -4 21 10 2 -7 4 -37 4 -30 0 -71 8 -90 17 -34 15 -27 16 168 14 111 -2
202 0 202 5 0 4 -37 7 -82 8 -216 2 -396 10 -426 20 -20 7 -43 7 -60 2 -15 -5
-129 -7 -254 -5 l-228 4 0 24 c0 21 -5 24 -35 24 -31 0 -35 -3 -35 -25z m50
-5 c0 -21 -24 -28 -35 -10 -8 14 3 30 21 30 8 0 14 -9 14 -20z m-52 -49 c3 -8
-1 -12 -9 -9 -7 2 -15 10 -17 17 -3 8 1 12 9 9 7 -2 15 -10 17 -17z m52 -33
c0 -50 0 -51 -20 -33 -11 10 -20 30 -20 45 0 30 7 40 27 40 9 0 13 -15 13 -52z
m255 41 c144 -1 156 -2 115 -13 -30 -8 -97 -11 -197 -8 -129 4 -153 7 -153 19
0 12 8 14 38 9 20 -3 109 -6 197 -7z m-11 -49 c-36 -16 -69 -24 -124 -31 -37
-5 -100 2 -100 11 0 6 41 11 98 12 l97 2 -97 3 c-148 5 -120 23 35 22 l132 0
-41 -19z m-294 -20 c0 -5 -2 -10 -4 -10 -3 0 -8 5 -11 10 -3 6 -1 10 4 10 6 0
11 -4 11 -10z m22 -46 c-8 -14 -9 -13 -9 10 0 18 3 24 9 18 7 -7 7 -16 0 -28z
m-22 16 c0 -5 -2 -10 -4 -10 -3 0 -8 5 -11 10 -3 6 -1 10 4 10 6 0 11 -4 11
-10z m115 0 c-28 -12 -45 -12 -45 0 0 6 15 10 33 9 27 0 29 -2 12 -9z"/>
<path d="M3672 4167 c-21 -9 -23 -16 -18 -46 3 -20 6 -49 7 -66 0 -26 2 -27 9
-10 8 18 9 18 9 -5 1 -15 -3 -30 -8 -35 -6 -7 20 -571 28 -592 1 -2 10 -3 21
-3 21 0 21 4 18 247 -2 157 -7 248 -13 250 -12 4 -7 81 6 89 19 11 8 26 -16
22 -24 -5 -25 -3 -25 38 0 32 4 44 18 47 16 4 16 5 0 6 -27 2 -21 18 10 30 27
11 27 11 -5 5 -18 -3 -33 -3 -33 1 0 3 15 12 33 20 29 13 30 14 7 14 -14 0
-36 -5 -48 -12z"/>
<path d="M2603 4153 c15 -2 39 -2 55 0 15 2 2 4 -28 4 -30 0 -43 -2 -27 -4z"/>
<path d="M2643 4113 c9 -2 23 -2 30 0 6 3 -1 5 -18 5 -16 0 -22 -2 -12 -5z"/>
<path d="M2828 4113 c12 -2 30 -2 40 0 9 3 -1 5 -23 4 -22 0 -30 -2 -17 -4z"/>
<path d="M2828 4073 c12 -2 30 -2 40 0 9 3 -1 5 -23 4 -22 0 -30 -2 -17 -4z"/>
<path d="M3708 4073 c6 -2 18 -2 25 0 6 3 1 5 -13 5 -14 0 -19 -2 -12 -5z"/>
<path d="M1526 3883 c-28 -5 -27 -6 33 -44 47 -30 72 -39 104 -39 24 0 48 -5
55 -12 9 -9 12 0 12 40 l0 52 -74 0 c-41 0 -80 2 -88 3 -7 2 -26 2 -42 0z"/>
<path d="M1997 3883 l-189 -3 4 -135 c2 -90 6 -129 12 -115 8 19 10 19 38 2
25 -15 30 -15 38 -2 7 10 10 -10 10 -62 l0 -78 -32 0 c-18 0 -56 -3 -85 -6
-50 -6 -51 -8 -57 -43 -3 -20 -6 -40 -5 -46 1 -5 3 -68 6 -139 3 -93 1 -131
-8 -136 -8 -6 -9 -24 -3 -66 l9 -59 100 1 c55 1 111 2 125 4 62 6 100 0 100
-16 0 -15 11 -16 96 -11 59 3 100 10 104 18 5 8 54 13 151 16 79 2 150 6 158
9 8 3 11 12 8 26 -4 12 -1 28 5 35 7 9 7 32 -2 79 -8 40 -11 106 -8 168 7 129
2 166 -23 166 -11 0 -19 5 -19 11 0 6 9 8 20 4 14 -5 20 -2 20 9 0 9 8 16 19
16 11 0 22 8 24 18 4 16 5 16 6 0 1 -20 9 -22 29 -10 8 6 10 16 5 28 -9 20
-33 31 -33 14 0 -6 -11 -3 -25 6 -14 9 -22 21 -18 28 3 6 -7 0 -23 -14 -15
-14 -23 -18 -16 -9 8 10 8 19 1 26 -14 14 0 43 20 43 14 0 14 -2 1 -10 -8 -5
-11 -13 -6 -17 4 -4 13 0 21 10 12 17 38 19 62 4 16 -10 21 14 26 141 l5 102
-241 -2 c-133 -2 -327 -4 -430 -5z m58 -205 c3 -3 -13 -5 -35 -6 -22 -1 -40 3
-40 8 0 10 65 8 75 -2z m153 -9 c3 -11 2 -11 -7 1 -7 11 -13 12 -21 4 -14 -14
-2 -44 17 -44 12 0 13 -3 4 -14 -8 -10 -8 -21 -1 -40 5 -15 10 -41 10 -57 0
-24 -4 -29 -25 -29 -18 0 -25 5 -25 20 0 12 7 20 18 21 15 1 15 2 1 6 -14 3
-17 17 -17 66 0 61 11 91 31 84 6 -2 12 -10 15 -18z m202 11 c0 -5 -5 -10 -11
-10 -5 0 -7 5 -4 10 3 6 8 10 11 10 2 0 4 -4 4 -10z m95 1 c3 -6 -3 -9 -14 -8
-11 0 -17 5 -15 9 7 11 22 10 29 -1z m-300 -221 c3 -5 1 -10 -4 -10 -6 0 -11
5 -11 10 0 6 2 10 4 10 3 0 8 -4 11 -10z m-295 -10 c0 -6 -30 -10 -70 -10 -40
0 -70 4 -70 10 0 6 30 10 70 10 40 0 70 -4 70 -10z m0 -36 c0 -11 -17 -14 -70
-14 -49 0 -70 4 -70 13 0 8 21 12 70 13 53 1 70 -2 70 -12z m300 6 c0 -5 -4
-10 -10 -10 -5 0 -10 5 -10 10 0 6 5 10 10 10 6 0 10 -4 10 -10z m-300 -40 c0
-5 -21 -10 -47 -10 -27 0 -58 -3 -70 -6 -17 -5 -23 -2 -23 10 0 13 12 16 70
16 40 0 70 -4 70 -10z m300 0 c0 -5 -4 -10 -10 -10 -5 0 -10 5 -10 10 0 6 5
10 10 10 6 0 10 -4 10 -10z m50 -29 c0 -5 -16 -11 -35 -13 -24 -3 -35 0 -35 9
0 8 13 13 35 13 19 0 35 -4 35 -9z m280 -1 c0 -6 -32 -10 -75 -10 -43 0 -75 4
-75 10 0 6 32 10 75 10 43 0 75 -4 75 -10z m-630 -10 c0 -6 -30 -10 -70 -10
-40 0 -70 4 -70 10 0 6 30 10 70 10 40 0 70 -4 70 -10z m0 -37 c0 -9 -22 -13
-75 -13 -66 0 -86 6 -71 21 2 2 36 4 75 4 50 0 71 -4 71 -12z m350 7 c0 -5
-15 -10 -34 -10 -19 0 -38 5 -41 10 -4 6 10 10 34 10 23 0 41 -4 41 -10z m280
0 c0 -6 -32 -10 -75 -10 -43 0 -75 4 -75 10 0 6 32 10 75 10 43 0 75 -4 75
-10z m-5 -35 c6 -2 -26 -3 -70 -4 -47 0 -72 4 -60 8 17 7 106 4 130 -4z m-625
-4 c0 -9 -71 -21 -121 -21 -19 0 -29 5 -29 15 0 12 15 15 75 15 41 0 75 -4 75
-9z m350 -1 c0 -5 -16 -10 -35 -10 -19 0 -35 5 -35 10 0 6 16 10 35 10 19 0
35 -4 35 -10z m0 -30 c0 -5 -6 -10 -12 -10 -7 0 -23 -3 -35 -6 -17 -5 -23 -2
-23 10 0 12 9 16 35 16 19 0 35 -4 35 -10z m280 0 c0 -6 -32 -10 -75 -10 -43
0 -75 4 -75 10 0 6 32 10 75 10 43 0 75 -4 75 -10z m-740 -10 c0 -5 -9 -10
-20 -10 -11 0 -20 5 -20 10 0 6 9 10 20 10 11 0 20 -4 20 -10z m110 0 c0 -5
-22 -10 -50 -10 -27 0 -50 5 -50 10 0 6 23 10 50 10 28 0 50 -4 50 -10z m227
-26 c-10 -10 -77 -13 -77 -3 0 5 19 9 42 9 23 0 39 -3 35 -6z m123 -4 c0 -5
-15 -10 -34 -10 -19 0 -38 5 -41 10 -4 6 10 10 34 10 23 0 41 -4 41 -10z m230
0 c-36 -12 -100 -12 -100 0 0 6 27 10 63 9 46 -1 56 -3 37 -9z m-690 -10 c0
-5 -9 -10 -20 -10 -11 0 -20 5 -20 10 0 6 9 10 20 10 11 0 20 -4 20 -10z m120
0 c-20 -13 -100 -13 -100 0 0 6 26 10 58 10 40 0 53 -3 42 -10z m-120 -35 c0
-8 -9 -15 -20 -15 -11 0 -20 7 -20 15 0 8 9 15 20 15 11 0 20 -7 20 -15z m0
-40 c0 -8 -9 -15 -20 -15 -11 0 -20 7 -20 15 0 8 9 15 20 15 11 0 20 -7 20
-15z m749 11 c-2 -2 -40 -6 -84 -9 -49 -4 -68 -3 -50 2 30 9 142 14 134 7z
m-426 -13 c-13 -2 -33 -2 -45 0 -13 2 -3 4 22 4 25 0 35 -2 23 -4z m120 0
c-13 -2 -33 -2 -45 0 -13 2 -3 4 22 4 25 0 35 -2 23 -4z m44 -55 c-2 -13 -4
-3 -4 22 0 25 2 35 4 23 2 -13 2 -33 0 -45z m30 0 c-2 -13 -4 -3 -4 22 0 25 2
35 4 23 2 -13 2 -33 0 -45z m50 40 c-3 -8 -6 -5 -6 6 -1 11 2 17 5 13 3 -3 4
-12 1 -19z m-504 5 c-7 -2 -21 -2 -30 0 -10 3 -4 5 12 5 17 0 24 -2 18 -5z
m94 -55 c-2 -13 -4 -3 -4 22 0 25 2 35 4 23 2 -13 2 -33 0 -45z m80 10 c-2
-13 -4 -5 -4 17 -1 22 1 32 4 23 2 -10 2 -28 0 -40z m-50 20 c-3 -8 -6 -5 -6
6 -1 11 2 17 5 13 3 -3 4 -12 1 -19z m153 7 c0 -11 -11 -15 -40 -15 -29 0 -40
4 -40 15 0 11 11 15 40 15 29 0 40 -4 40 -15z m120 0 c0 -11 -11 -15 -40 -15
-29 0 -40 4 -40 15 0 11 11 15 40 15 29 0 40 -4 40 -15z m290 5 c0 -6 -33 -10
-80 -10 -47 0 -80 4 -80 10 0 6 33 10 80 10 47 0 80 -4 80 -10z m-620 -9 c0
-9 -107 -19 -147 -13 -13 2 -23 8 -23 13 0 5 38 9 85 9 47 0 85 -4 85 -9z
m620 -26 c0 -12 -16 -15 -80 -15 -84 0 -111 16 -37 23 98 9 117 7 117 -8z
m-620 -10 c0 -12 -16 -15 -85 -15 -107 0 -113 18 -7 23 42 1 80 4 85 5 4 1 7
-5 7 -13z m210 0 c0 -11 -11 -15 -40 -15 -29 0 -40 4 -40 15 0 11 11 15 40 15
29 0 40 -4 40 -15z m120 5 c0 -5 -18 -10 -40 -10 -22 0 -40 5 -40 10 0 6 18
10 40 10 22 0 40 -4 40 -10z"/>
<path d="M2750 3629 l0 -191 23 14 c21 15 22 22 25 180 l2 165 -25 11 -25 12
0 -191z"/>
<path d="M2980 3646 c0 -25 1 -46 3 -46 2 0 18 11 35 24 l32 23 -22 15 c-49
31 -48 31 -48 -16z"/>
<path d="M1081 3594 c0 -11 3 -14 6 -6 3 7 2 16 -1 19 -3 4 -6 -2 -5 -13z"/>
<path d="M1030 3545 c0 -8 5 -15 10 -15 6 0 10 7 10 15 0 8 -4 15 -10 15 -5 0
-10 -7 -10 -15z"/>
<path d="M1071 3544 c0 -11 3 -14 6 -6 3 7 2 16 -1 19 -3 4 -6 -2 -5 -13z"/>
<path d="M900 3460 c0 -44 3 -80 8 -81 46 -3 248 2 367 11 148 10 276 17 326
19 24 1 26 4 23 33 -2 17 -6 33 -8 35 -2 2 -31 6 -65 9 -42 5 -66 3 -76 -6
-12 -10 -18 -10 -30 0 -10 9 -15 9 -15 1 0 -6 -7 -11 -16 -11 -8 0 -12 5 -9
10 6 10 -10 15 -30 10 -5 -1 -16 -3 -22 -3 -7 0 -13 -4 -13 -9 0 -4 -16 -8
-35 -8 -25 0 -35 4 -35 16 0 10 -6 14 -15 11 -8 -4 -17 -2 -20 3 -6 9 -65 -10
-65 -22 0 -4 -5 -8 -11 -8 -8 0 -8 4 1 15 6 8 9 19 5 24 -6 11 -60 9 -71 -2
-3 -3 -22 1 -41 10 -20 8 -62 16 -94 19 l-59 4 0 -80z m229 14 c10 -9 -6 -12
-31 -7 -16 3 -28 9 -28 14 0 8 48 2 59 -7z"/>
<path d="M3160 3510 c0 -5 13 -10 29 -10 17 0 33 5 36 10 4 6 -8 10 -29 10
-20 0 -36 -4 -36 -10z"/>
<path d="M1280 3490 c0 -5 4 -10 9 -10 6 0 13 5 16 10 3 6 -1 10 -9 10 -9 0
-16 -4 -16 -10z"/>
<path d="M3053 3483 c37 -2 96 -2 130 0 34 2 4 3 -68 3 -71 0 -99 -1 -62 -3z"/>
<path d="M1587 3393 c-4 -3 -7 -17 -7 -30 0 -20 -2 -22 -19 -11 -11 7 -18 15
-15 20 8 13 -43 20 -64 9 -22 -12 -36 -50 -19 -53 7 -1 -46 -5 -117 -8 -81 -3
-131 -9 -133 -16 -3 -8 19 -10 71 -6 94 6 147 -3 139 -23 -3 -10 2 -16 13 -17
11 -1 -35 -4 -100 -8 -81 -3 -121 -9 -123 -17 -3 -9 23 -13 98 -15 98 -3 102
-4 85 -20 -17 -17 -12 -18 103 -18 137 0 121 -12 125 93 l2 47 -46 2 -45 1 43
4 c41 4 42 5 42 39 0 32 -16 45 -33 27z m1 -140 c-10 -2 -28 -2 -40 0 -13 2
-5 4 17 4 22 1 32 -1 23 -4z"/>
<path d="M3103 3238 c4 -83 7 -177 7 -210 l0 -58 131 0 c97 0 128 3 123 12 -5
8 -2 9 9 5 10 -3 17 -2 17 3 0 5 32 12 71 16 46 4 73 12 76 21 4 10 9 11 19 2
11 -9 14 -8 14 1 0 7 6 10 14 7 8 -3 32 6 53 20 21 14 52 29 68 33 l30 6 3
147 3 147 -322 0 -322 0 6 -152z m229 84 c-5 -1 -6 -16 -4 -32 4 -29 3 -30
-37 -30 -22 0 -41 -4 -41 -10 0 -5 18 -10 41 -10 36 0 40 -2 37 -22 -2 -19
-10 -24 -40 -26 -42 -4 -44 2 -38 92 1 26 -2 36 -9 32 -6 -4 -11 -4 -11 1 0 4
25 8 55 8 30 0 51 -1 47 -3z m-4 -174 c3 -26 1 -28 -33 -28 -37 0 -52 17 -41
46 4 10 16 14 38 12 28 -2 34 -8 36 -30z m337 -48 c3 -6 -1 -7 -9 -4 -18 7
-21 14 -7 14 6 0 13 -4 16 -10z"/>
<path d="M1171 3371 c-9 -6 -15 -31 -16 -71 -3 -68 -10 -77 -55 -74 -16 1 -30
-2 -30 -7 0 -5 -7 -9 -16 -9 -15 0 -16 10 -11 83 l6 82 -15 -70 c-9 -38 -18
-72 -20 -75 -3 -2 -18 1 -34 7 -23 8 -30 8 -30 0 0 -8 -4 -7 -9 2 -5 8 -16 11
-25 8 -14 -5 -16 -27 -16 -147 l0 -140 -325 0 -325 0 0 -695 0 -695 258 2 257
3 -252 2 -253 3 0 685 0 685 2240 0 2240 0 0 -685 0 -685 -252 -3 -253 -2 258
-3 257 -2 0 695 0 695 -582 0 c-1941 0 -3021 3 -3004 7 15 4 17 11 11 36 -4
18 -8 39 -8 47 -1 39 16 246 21 255 9 15 13 75 5 75 -4 0 -14 -4 -22 -9z"/>
<path d="M900 3360 c0 -5 5 -10 11 -10 5 0 7 5 4 10 -3 6 -8 10 -11 10 -2 0
-4 -4 -4 -10z"/>
<path d="M1021 3344 c0 -11 3 -14 6 -6 3 7 2 16 -1 19 -3 4 -6 -2 -5 -13z"/>
<path d="M2700 3319 c0 -7 62 -10 195 -8 107 1 195 6 195 11 0 4 -88 8 -195 8
-132 0 -195 -3 -195 -11z"/>
<path d="M2810 3261 c-63 -4 -110 -8 -105 -11 18 -9 385 1 385 11 0 9 -77 9
-280 0z"/>
<path d="M3530 2980 c0 -5 7 -10 16 -10 8 0 12 5 9 10 -3 6 -10 10 -16 10 -5
0 -9 -4 -9 -10z"/>
<path d="M1875 2476 c-45 -20 -67 -50 -72 -98 -6 -59 19 -94 112 -158 106 -74
130 -126 80 -175 -28 -29 -83 -33 -120 -9 -25 17 -55 80 -55 119 0 13 -4 27
-10 30 -6 4 -10 -27 -10 -86 0 -78 2 -90 14 -80 11 9 26 8 66 -5 90 -29 194
-4 225 56 38 74 8 139 -100 213 -95 65 -107 78 -108 122 -1 45 21 65 74 65 46
0 86 -37 101 -96 16 -60 28 -45 28 37 0 61 -11 90 -22 57 -3 -8 -16 -7 -46 5
-50 20 -115 21 -157 3z"/>
<path d="M3843 2475 c-61 -26 -87 -98 -57 -160 12 -25 42 -54 96 -92 90 -63
108 -85 108 -130 0 -44 -33 -73 -82 -73 -54 0 -95 40 -110 108 -7 28 -16 52
-20 52 -5 0 -8 -38 -8 -85 0 -47 4 -85 9 -85 5 0 11 5 13 11 3 8 18 6 51 -5
62 -21 122 -20 173 3 54 25 74 55 74 112 0 60 -23 89 -130 164 -43 30 -81 62
-84 71 -12 30 -6 71 12 87 21 19 73 22 103 7 22 -12 59 -80 59 -110 0 -11 5
-20 10 -20 6 0 10 32 10 75 0 41 -4 75 -9 75 -5 0 -11 -5 -13 -12 -3 -8 -16
-7 -46 5 -51 20 -115 21 -159 2z"/>
<path d="M405 2468 c11 -6 23 -16 27 -22 4 -6 8 -96 8 -201 0 -104 -4 -195 -8
-201 -4 -6 -16 -15 -27 -20 -16 -7 -8 -9 33 -12 28 -2 76 -2 105 0 40 3 48 5
32 12 -32 15 -35 25 -35 124 l0 92 90 0 90 0 0 -100 c0 -98 0 -100 -27 -114
-26 -14 -21 -15 82 -15 103 0 108 1 83 15 l-28 15 0 208 0 209 28 10 c21 8 3
11 -83 11 -95 1 -107 -1 -85 -12 24 -12 25 -17 28 -115 l3 -103 -88 3 -88 3
-3 80 c-4 98 1 119 30 133 18 8 1 11 -82 11 -83 0 -101 -2 -85 -11z"/>
<path d="M920 2467 l25 -13 3 -206 2 -207 -27 -15 c-26 -14 -21 -15 82 -15
103 0 108 1 83 15 -28 14 -28 16 -28 109 l0 95 34 0 c18 0 39 -6 45 -13 6 -8
18 -49 27 -93 20 -101 45 -129 112 -121 24 3 51 13 61 22 15 16 15 17 -5 11
-28 -9 -39 7 -55 77 -16 74 -39 104 -87 113 l-37 7 42 14 c122 41 127 189 7
222 -22 6 -100 11 -174 11 -115 0 -131 -2 -110 -13z m231 -16 c19 -15 24 -30
27 -84 4 -60 2 -68 -21 -91 -18 -18 -37 -26 -62 -26 l-35 0 0 98 c0 63 4 102
12 110 18 18 53 15 79 -7z"/>
<path d="M1350 2467 c25 -12 25 -13 31 -187 6 -194 15 -227 70 -256 52 -26
129 -29 181 -7 70 31 82 65 85 248 4 179 6 189 35 203 19 9 11 11 -47 11 l-70
1 33 -20 32 -20 0 -155 c0 -162 -8 -204 -46 -236 -46 -39 -116 -32 -145 15
-17 28 -19 49 -17 211 l3 179 25 13 c22 11 10 13 -85 13 -95 0 -107 -2 -85
-13z"/>
<path d="M2170 2467 l25 -13 3 -206 2 -207 -27 -15 c-26 -14 -21 -15 82 -15
103 0 108 1 83 15 -28 14 -28 16 -28 114 l0 100 90 0 90 0 0 -74 c0 -91 -8
-136 -26 -136 -7 0 -16 -4 -19 -10 -4 -6 31 -10 97 -10 97 1 101 2 75 16 l-27
15 2 207 3 206 25 13 c22 11 11 13 -80 12 -82 0 -100 -3 -83 -11 26 -13 36
-62 31 -153 l-3 -60 -88 -3 -88 -3 3 103 c3 98 4 103 28 115 22 11 10 13 -85
13 -95 0 -107 -2 -85 -13z"/>
<path d="M2686 2468 c29 -14 34 -44 34 -223 0 -167 -6 -215 -26 -215 -7 0 -16
-4 -19 -10 -4 -6 31 -10 97 -10 97 1 101 2 75 16 l-27 15 2 207 3 206 25 13
c22 11 11 13 -80 12 -80 0 -100 -3 -84 -11z"/>
<path d="M2916 2468 c29 -14 34 -44 34 -223 0 -167 -6 -215 -26 -215 -7 0 -16
-4 -19 -10 -4 -6 31 -10 97 -10 97 1 101 2 76 16 -28 15 -28 15 -28 120 0 97
1 104 18 95 9 -5 43 -53 76 -106 55 -91 57 -97 40 -110 -17 -13 17 -14 259
-15 l277 0 0 82 c0 86 -8 92 -29 21 -17 -61 -52 -85 -120 -81 l-56 3 -3 103
c-3 95 -1 102 17 102 36 0 53 -13 71 -52 10 -22 19 -36 22 -31 2 4 1 49 -2 98
l-5 90 -17 -38 c-15 -33 -48 -57 -79 -57 -5 0 -9 46 -9 104 0 85 3 105 16 110
26 10 63 7 99 -8 27 -12 37 -24 52 -65 10 -28 20 -51 23 -51 3 0 6 32 7 70 l3
70 -183 0 c-153 0 -178 -2 -157 -13 l25 -13 3 -206 c2 -199 2 -208 -18 -218
-33 -18 -53 2 -141 141 -46 72 -84 132 -84 134 0 15 100 122 133 142 23 14 42
27 42 29 0 2 -37 4 -82 4 -79 -1 -82 -1 -55 -16 37 -20 34 -43 -12 -101 -48
-61 -80 -89 -109 -98 l-23 -7 3 98 c3 94 4 99 28 111 22 11 11 13 -80 12 -80
0 -100 -3 -84 -11z"/>
<path d="M4140 2467 l25 -13 3 -206 2 -207 -27 -15 c-26 -14 -21 -15 82 -15
103 0 108 1 83 15 -28 14 -28 16 -28 114 l0 100 90 0 90 0 0 -74 c0 -91 -8
-136 -26 -136 -7 0 -16 -4 -19 -10 -4 -6 31 -10 97 -10 97 1 101 2 75 16 l-27
15 2 207 3 206 25 13 c22 11 11 13 -80 12 -82 0 -100 -3 -83 -11 26 -13 36
-62 31 -153 l-3 -60 -88 -3 -88 -3 3 103 c3 98 4 103 28 115 22 11 10 13 -85
13 -95 0 -107 -2 -85 -13z"/>
<path d="M1360 1570 c0 -33 4 -60 10 -60 6 0 10 9 10 20 0 11 7 20 15 20 8 0
20 -9 27 -20 7 -11 19 -20 25 -20 11 0 11 4 1 20 -10 15 -10 22 0 32 29 29 -2
68 -54 68 l-34 0 0 -60z m75 30 c9 -15 -14 -40 -36 -40 -14 0 -19 7 -19 25 0
20 5 25 24 25 14 0 28 -5 31 -10z"/>
<path d="M1580 1570 l0 -60 46 0 c27 0 43 4 39 10 -3 6 -19 10 -36 10 -19 0
-29 5 -29 15 0 10 10 15 30 15 17 0 30 5 30 10 0 6 -13 10 -30 10 -20 0 -30 5
-30 15 0 10 10 15 30 15 17 0 30 5 30 10 0 6 -18 10 -40 10 l-40 0 0 -60z"/>
<path d="M1796 1573 c-26 -55 -27 -85 -2 -50 17 22 62 22 75 0 5 -10 12 -15
16 -12 8 9 -41 119 -54 119 -5 0 -21 -25 -35 -57z m44 18 c0 -5 3 -16 6 -25 4
-12 0 -16 -16 -16 -16 0 -20 4 -16 16 3 9 6 20 6 25 0 5 5 9 10 9 6 0 10 -4
10 -9z"/>
<path d="M2000 1570 l0 -60 41 0 c24 0 38 4 34 10 -3 6 -17 10 -31 10 -22 0
-24 4 -24 50 0 28 -4 50 -10 50 -6 0 -10 -27 -10 -60z"/>
<path d="M2350 1570 l0 -60 40 0 c22 0 40 5 40 10 0 6 -13 10 -30 10 -20 0
-30 5 -30 15 0 9 9 15 25 15 14 0 25 5 25 10 0 6 -11 10 -25 10 -16 0 -25 6
-25 15 0 10 10 15 30 15 17 0 30 5 30 10 0 6 -18 10 -40 10 l-40 0 0 -60z"/>
<path d="M2563 1624 c-25 -11 -14 -45 17 -57 41 -16 41 -42 -1 -33 -22 4 -29
2 -27 -7 7 -21 65 -21 77 0 12 24 3 39 -32 52 -37 14 -35 34 3 29 19 -3 29 -1
27 6 -4 12 -45 18 -64 10z"/>
<path d="M2740 1620 c0 -5 9 -10 20 -10 17 0 20 -7 20 -50 0 -27 5 -50 10 -50
6 0 10 23 10 50 0 38 4 50 15 50 8 0 15 5 15 10 0 6 -20 10 -45 10 -25 0 -45
-4 -45 -10z"/>
<path d="M2957 1573 c-25 -58 -26 -83 -3 -50 17 22 62 22 75 0 5 -10 12 -15
16 -12 9 9 -38 119 -51 119 -6 0 -23 -26 -37 -57z m50 -19 c-3 -4 -13 -4 -22
0 -13 5 -14 10 -4 28 l12 23 10 -23 c6 -12 7 -25 4 -28z"/>
<path d="M3150 1620 c0 -5 9 -10 20 -10 17 0 20 -7 20 -50 0 -27 5 -50 10 -50
6 0 10 23 10 50 0 43 3 50 20 50 11 0 20 5 20 10 0 6 -22 10 -50 10 -27 0 -50
-4 -50 -10z"/>
<path d="M3360 1570 l0 -60 46 0 c27 0 43 4 39 10 -3 6 -19 10 -36 10 -19 0
-29 5 -29 15 0 10 10 15 30 15 17 0 30 5 30 10 0 6 -13 10 -30 10 -20 0 -30 5
-30 15 0 10 10 15 30 15 17 0 30 5 30 10 0 6 -18 10 -40 10 l-40 0 0 -60z"/>
<path d="M3572 1618 c-21 -21 -13 -38 23 -54 42 -17 37 -39 -6 -30 -36 7 -38
-11 -2 -20 56 -14 83 35 34 61 -38 19 -41 39 -6 32 16 -3 24 0 22 7 -5 16 -50
19 -65 4z"/>
<path d="M2188 1563 c6 -2 18 -2 25 0 6 3 1 5 -13 5 -14 0 -19 -2 -12 -5z"/>
</g>
</svg>
